<?xml version="1.0" encoding="UTF-8" standalone="no"?>
<!DOCTYPE svg PUBLIC "-//W3C//DTD SVG 1.1//EN" "http://www.w3.org/Graphics/SVG/1.1/DTD/svg11.dtd">
<svg width="100%" height="100%" viewBox="0 0 700 601" version="1.1" xmlns="http://www.w3.org/2000/svg" xmlns:xlink="http://www.w3.org/1999/xlink" xml:space="preserve" xmlns:serif="http://www.serif.com/" style="fill-rule:evenodd;clip-rule:evenodd;stroke-linejoin:round;stroke-miterlimit:2;">
    <g transform="matrix(1,0,0,1,-15222,-291)">
        <g id="Artboard6" transform="matrix(1,0,0,1,-0.167208,0)">
            <rect x="12458.2" y="0" width="4167.55" height="2923.93" style="fill:none;"/>
            <g transform="matrix(1,0,0,1,10640,477.63)">
                <g transform="matrix(1,0,0,1,9.73037,-5.125)">
                    <path d="M4581.38,306.628C4581.13,301.961 4580.81,296.253 4580.44,289.503C4580.11,282.711 4579.73,275.461 4579.31,267.753C4578.94,260.003 4578.56,252.315 4578.19,244.69C4577.81,237.023 4577.48,230.003 4577.19,223.628C4578.81,223.461 4580.9,223.294 4583.44,223.128C4585.98,222.961 4588.73,222.794 4591.69,222.628C4594.65,222.461 4597.54,222.315 4600.38,222.19C4603.21,222.065 4605.73,222.003 4607.94,222.003C4611.15,222.003 4614.36,222.315 4617.56,222.94C4620.81,223.523 4623.77,224.565 4626.44,226.065C4629.15,227.565 4631.31,229.711 4632.94,232.503C4634.56,235.253 4635.38,238.815 4635.38,243.19C4635.38,247.482 4634.27,251.523 4632.06,255.315C4629.9,259.107 4627,261.857 4623.38,263.565C4624.33,265.357 4625.4,267.523 4626.56,270.065C4627.73,272.607 4628.9,275.336 4630.06,278.253C4631.27,281.169 4632.42,284.065 4633.5,286.94C4634.58,289.773 4635.54,292.378 4636.38,294.753C4637.25,297.128 4637.9,299.065 4638.31,300.565C4637.11,301.315 4635.48,302.023 4633.44,302.69C4631.44,303.357 4629.38,303.961 4627.25,304.503C4625.13,305.003 4623.27,305.419 4621.69,305.753C4620.15,306.086 4619.21,306.253 4618.88,306.253C4618.54,304.586 4618.02,302.398 4617.31,299.69C4616.61,296.982 4615.79,294.044 4614.88,290.878C4613.96,287.711 4613.02,284.607 4612.06,281.565C4611.15,278.482 4610.29,275.732 4609.5,273.315C4608.71,270.898 4608.08,269.107 4607.63,267.94C4606.67,268.148 4605.69,268.336 4604.69,268.503C4603.73,268.669 4602.81,268.794 4601.94,268.878C4601.11,268.961 4600.33,269.023 4599.63,269.065C4599.79,270.023 4599.96,271.607 4600.13,273.815C4600.33,275.982 4600.54,278.503 4600.75,281.378C4600.96,284.253 4601.15,287.211 4601.31,290.253C4601.52,293.253 4601.69,296.086 4601.81,298.753C4601.98,301.419 4602.08,303.607 4602.13,305.315C4600.46,305.69 4598.42,305.961 4596,306.128C4593.63,306.336 4591.15,306.461 4588.56,306.503C4586.02,306.586 4583.63,306.628 4581.38,306.628ZM4597.94,254.065C4599.23,254.065 4600.54,254.023 4601.88,253.94C4603.25,253.815 4604.88,253.586 4606.75,253.253C4609.46,252.794 4611.63,252.169 4613.25,251.378C4614.88,250.544 4616.04,249.503 4616.75,248.253C4617.5,246.961 4617.88,245.461 4617.88,243.753C4617.88,241.461 4617.36,239.815 4616.31,238.815C4615.27,237.773 4613.83,237.107 4612,236.815C4610.21,236.523 4608.11,236.378 4605.69,236.378C4605.02,236.378 4604.23,236.419 4603.31,236.503C4602.4,236.544 4601.48,236.607 4600.56,236.69C4599.65,236.773 4598.81,236.857 4598.06,236.94C4597.31,236.982 4596.77,237.023 4596.44,237.065C4596.48,237.773 4596.56,238.711 4596.69,239.878C4596.81,241.044 4596.94,242.336 4597.06,243.753C4597.19,245.128 4597.29,246.503 4597.38,247.878C4597.5,249.211 4597.61,250.44 4597.69,251.565C4597.81,252.648 4597.9,253.482 4597.94,254.065Z" style="fill:white;fill-rule:nonzero;"/>
                </g>
                <g transform="matrix(1,0,0,1,9.73037,-5.125)">
                    <path d="M4668.38,304.94C4667.67,304.982 4666.31,305.065 4664.31,305.19C4662.36,305.357 4660.27,305.44 4658.06,305.44C4656.44,305.44 4654.79,305.378 4653.13,305.253C4651.5,305.169 4649.9,305.044 4648.31,304.878C4648.52,303.794 4648.75,301.586 4649,298.253C4649.29,294.878 4649.56,290.919 4649.81,286.378C4650.11,281.836 4650.38,277.148 4650.63,272.315C4650.92,267.44 4651.13,262.878 4651.25,258.628C4651.42,254.378 4651.5,250.961 4651.5,248.378C4652.33,248.336 4653.56,248.273 4655.19,248.19C4656.81,248.107 4658.56,248.044 4660.44,248.003C4662.31,247.919 4664.11,247.857 4665.81,247.815C4667.52,247.732 4668.88,247.69 4669.88,247.69C4670.08,248.982 4670.25,251.065 4670.38,253.94C4670.5,256.815 4670.56,260.023 4670.56,263.565C4670.56,267.357 4670.5,271.378 4670.38,275.628C4670.29,279.878 4670.15,284.003 4669.94,288.003C4669.77,291.961 4669.54,295.461 4669.25,298.503C4668.96,301.503 4668.67,303.648 4668.38,304.94ZM4661.38,239.628C4657.63,239.628 4654.48,238.544 4651.94,236.378C4649.4,234.169 4648.13,231.273 4648.13,227.69C4648.13,225.232 4648.73,223.128 4649.94,221.378C4651.15,219.628 4652.71,218.294 4654.63,217.378C4656.58,216.419 4658.65,215.94 4660.81,215.94C4664.27,215.94 4667.13,217.065 4669.38,219.315C4671.67,221.565 4672.81,224.461 4672.81,228.003C4672.81,231.294 4671.73,234.065 4669.56,236.315C4667.4,238.523 4664.67,239.628 4661.38,239.628Z" style="fill:white;fill-rule:nonzero;"/>
                </g>
                <g transform="matrix(1,0,0,1,9.73037,-5.125)">
                    <path d="M4710.5,310.003C4705.63,310.003 4701.15,309.398 4697.06,308.19C4693.02,307.023 4689.58,305.648 4686.75,304.065C4683.96,302.44 4681.94,300.982 4680.69,299.69C4680.94,298.898 4681.42,297.753 4682.13,296.253C4682.88,294.711 4683.75,293.044 4684.75,291.253C4685.75,289.461 4686.75,287.794 4687.75,286.253C4688.75,284.711 4689.65,283.565 4690.44,282.815C4692.44,284.523 4694.61,286.211 4696.94,287.878C4699.27,289.503 4701.67,290.836 4704.13,291.878C4706.58,292.919 4708.88,293.44 4711,293.44C4712.67,293.44 4714.17,293.232 4715.5,292.815C4716.83,292.357 4717.88,291.69 4718.63,290.815C4719.42,289.94 4719.81,288.857 4719.81,287.565C4719.81,286.065 4719.08,284.628 4717.63,283.253C4716.21,281.836 4714.38,280.503 4712.13,279.253C4709.88,278.003 4707.52,276.878 4705.06,275.878C4701.69,274.503 4698.54,272.898 4695.63,271.065C4692.71,269.19 4690.36,266.898 4688.56,264.19C4686.77,261.44 4685.88,258.023 4685.88,253.94C4685.88,249.773 4687.11,246.273 4689.56,243.44C4692.02,240.607 4695.23,238.461 4699.19,237.003C4703.19,235.544 4707.46,234.815 4712,234.815C4716.29,234.815 4720.65,235.419 4725.06,236.628C4729.48,237.794 4733.08,239.482 4735.88,241.69C4735.63,242.482 4735.08,243.69 4734.25,245.315C4733.46,246.94 4732.48,248.69 4731.31,250.565C4730.19,252.398 4728.98,254.086 4727.69,255.628C4725.98,254.169 4723.83,252.773 4721.25,251.44C4718.67,250.107 4715.96,249.44 4713.13,249.44C4711.71,249.44 4710.29,249.586 4708.88,249.878C4707.5,250.169 4706.36,250.69 4705.44,251.44C4704.56,252.19 4704.13,253.211 4704.13,254.503C4704.13,255.753 4704.61,256.878 4705.56,257.878C4706.52,258.836 4707.92,259.773 4709.75,260.69C4711.63,261.607 4713.81,262.565 4716.31,263.565C4718.81,264.565 4721.36,265.753 4723.94,267.128C4726.52,268.461 4728.9,270.065 4731.06,271.94C4733.27,273.815 4735.04,276.003 4736.38,278.503C4737.71,280.961 4738.38,283.794 4738.38,287.003C4738.38,292.128 4737.11,296.398 4734.56,299.815C4732.02,303.232 4728.63,305.773 4724.38,307.44C4720.17,309.148 4715.54,310.003 4710.5,310.003Z" style="fill:white;fill-rule:nonzero;"/>
                </g>
                <g transform="matrix(1,0,0,1,9.73037,-5.125)">
                    <path d="M4807.06,293.878C4805.9,295.294 4804.44,296.69 4802.69,298.065C4800.94,299.44 4798.83,300.69 4796.38,301.815C4793.96,302.898 4791.19,303.773 4788.06,304.44C4784.94,305.065 4781.44,305.378 4777.56,305.378C4771.27,305.378 4765.69,304.19 4760.81,301.815C4755.94,299.398 4752.13,295.836 4749.38,291.128C4746.67,286.378 4745.31,280.482 4745.31,273.44C4745.31,266.398 4746.73,260.273 4749.56,255.065C4752.4,249.815 4756.36,245.753 4761.44,242.878C4766.52,239.961 4772.46,238.503 4779.25,238.503C4787.83,238.503 4794.58,240.898 4799.5,245.69C4804.46,250.44 4807.04,257.023 4807.25,265.44C4807.29,266.982 4807.27,268.378 4807.19,269.628C4807.11,270.878 4806.94,272.211 4806.69,273.628C4806.06,273.586 4804.73,273.544 4802.69,273.503C4800.65,273.461 4798.33,273.419 4795.75,273.378C4793.21,273.294 4790.79,273.232 4788.5,273.19C4786.25,273.148 4784.58,273.128 4783.5,273.128C4779.88,273.128 4776.36,273.294 4772.94,273.628C4769.56,273.961 4766.73,274.315 4764.44,274.69C4764.44,275.44 4764.48,276.19 4764.56,276.94C4764.69,277.648 4764.86,278.336 4765.06,279.003C4765.61,280.711 4766.54,282.169 4767.88,283.378C4769.25,284.586 4770.88,285.523 4772.75,286.19C4774.67,286.815 4776.69,287.128 4778.81,287.128C4780.73,287.128 4782.48,286.898 4784.06,286.44C4785.69,285.94 4787.17,285.294 4788.5,284.503C4789.83,283.711 4791.04,282.857 4792.13,281.94C4793.25,280.982 4794.29,280.044 4795.25,279.128C4795.5,279.336 4796.15,279.961 4797.19,281.003C4798.23,282.003 4799.4,283.253 4800.69,284.753C4801.98,286.211 4803.21,287.753 4804.38,289.378C4805.54,291.003 4806.44,292.503 4807.06,293.878ZM4765.13,263.003C4767,262.711 4769.31,262.44 4772.06,262.19C4774.81,261.94 4778,261.815 4781.63,261.815C4783.58,261.815 4785.31,261.836 4786.81,261.878C4788.36,261.919 4789.44,261.961 4790.06,262.003C4790.06,261.128 4789.94,260.169 4789.69,259.128C4789.36,257.711 4788.69,256.357 4787.69,255.065C4786.73,253.773 4785.48,252.732 4783.94,251.94C4782.44,251.148 4780.63,250.753 4778.5,250.753C4775.83,250.753 4773.5,251.336 4771.5,252.503C4769.54,253.669 4768.02,255.19 4766.94,257.065C4765.86,258.94 4765.25,260.919 4765.13,263.003Z" style="fill:white;fill-rule:nonzero;"/>
                </g>
                <path d="M4883.88,310.815C4877.54,310.815 4871.98,309.773 4867.19,307.69C4862.4,305.648 4858.67,302.607 4856,298.565C4853.38,294.482 4852.06,289.419 4852.06,283.378C4852.06,279.378 4852.69,275.815 4853.94,272.69C4855.19,269.523 4856.81,266.711 4858.81,264.253C4860.86,261.753 4863.04,259.565 4865.38,257.69C4867.75,255.815 4870.04,254.169 4872.25,252.753C4871.33,251.878 4870.13,250.565 4868.63,248.815C4867.17,247.065 4865.86,244.961 4864.69,242.503C4863.56,240.044 4863,237.357 4863,234.44C4863,230.065 4864.08,226.544 4866.25,223.878C4868.42,221.169 4871.23,219.19 4874.69,217.94C4878.19,216.648 4881.98,216.003 4886.06,216.003C4890.02,216.003 4893.56,216.773 4896.69,218.315C4899.81,219.815 4902.29,221.898 4904.13,224.565C4905.96,227.232 4906.88,230.315 4906.88,233.815C4906.88,236.94 4906.4,239.648 4905.44,241.94C4904.48,244.232 4903.11,246.398 4901.31,248.44C4899.56,250.44 4897.42,252.523 4894.88,254.69C4895.92,255.857 4897.17,257.253 4898.63,258.878C4900.08,260.461 4901.63,262.19 4903.25,264.065C4904.92,265.898 4906.61,267.794 4908.31,269.753C4910.06,271.711 4911.77,273.628 4913.44,275.503C4913.94,274.961 4914.52,274.211 4915.19,273.253C4915.9,272.294 4916.61,271.273 4917.31,270.19C4918.02,269.065 4918.67,268.044 4919.25,267.128C4919.83,266.169 4920.23,265.461 4920.44,265.003C4921.52,265.503 4922.81,266.294 4924.31,267.378C4925.81,268.461 4927.27,269.628 4928.69,270.878C4930.15,272.086 4931.38,273.211 4932.38,274.253C4932.04,275.128 4931.36,276.315 4930.31,277.815C4929.27,279.315 4928.15,280.836 4926.94,282.378C4925.77,283.878 4924.69,285.211 4923.69,286.378C4924.81,287.461 4925.96,288.628 4927.13,289.878C4928.33,291.128 4929.54,292.378 4930.75,293.628C4931.96,294.878 4933.06,296.065 4934.06,297.19C4933.19,298.523 4932.11,299.919 4930.81,301.378C4929.56,302.836 4928.23,304.211 4926.81,305.503C4925.44,306.794 4924.11,307.815 4922.81,308.565C4922.02,307.607 4921.08,306.44 4920,305.065C4918.96,303.732 4917.92,302.398 4916.88,301.065C4915.83,299.69 4914.94,298.544 4914.19,297.628C4913.23,298.753 4911.88,300.086 4910.13,301.628C4908.38,303.128 4906.23,304.565 4903.69,305.94C4901.15,307.357 4898.21,308.523 4894.88,309.44C4891.58,310.357 4887.92,310.815 4883.88,310.815ZM4884.75,296.19C4886.92,296.19 4889,295.878 4891,295.253C4893,294.586 4894.83,293.753 4896.5,292.753C4898.21,291.753 4899.71,290.711 4901,289.628C4902.29,288.503 4903.29,287.503 4904,286.628C4902.42,284.961 4900.67,283.086 4898.75,281.003C4896.83,278.919 4894.88,276.753 4892.88,274.503C4890.92,272.253 4889.02,270.086 4887.19,268.003C4885.36,265.878 4883.75,263.982 4882.38,262.315C4880.67,263.523 4879.06,264.857 4877.56,266.315C4876.06,267.732 4874.73,269.294 4873.56,271.003C4872.44,272.669 4871.54,274.503 4870.88,276.503C4870.25,278.503 4869.94,280.69 4869.94,283.065C4869.94,285.898 4870.56,288.294 4871.81,290.253C4873.11,292.211 4874.88,293.69 4877.13,294.69C4879.38,295.69 4881.92,296.19 4884.75,296.19ZM4884.5,245.628C4886.25,244.419 4887.83,242.732 4889.25,240.565C4890.71,238.398 4891.44,236.128 4891.44,233.753C4891.44,232.003 4890.9,230.628 4889.81,229.628C4888.77,228.586 4887.27,228.065 4885.31,228.065C4883.73,228.065 4882.27,228.586 4880.94,229.628C4879.65,230.628 4879,232.128 4879,234.128C4879,236.336 4879.61,238.503 4880.81,240.628C4882.06,242.711 4883.29,244.378 4884.5,245.628Z" style="fill:white;fill-rule:nonzero;"/>
                <g transform="matrix(1,0,0,1,-17.6787,0)">
                    <path d="M4981.94,303.628C4981.94,302.003 4981.96,299.398 4982,295.815C4982.04,292.232 4982.11,288.086 4982.19,283.378C4982.31,278.628 4982.44,273.628 4982.56,268.378C4982.69,263.128 4982.79,257.982 4982.88,252.94C4983,247.898 4983.11,243.294 4983.19,239.128C4983.31,234.961 4983.4,231.586 4983.44,229.003C4983.48,226.419 4983.5,225.003 4983.5,224.753C4985.83,224.586 4988.58,224.398 4991.75,224.19C4994.96,223.982 4998.31,223.815 5001.81,223.69C5005.36,223.523 5008.79,223.44 5012.13,223.44C5017,223.44 5021.31,224.065 5025.06,225.315C5028.86,226.565 5031.83,228.586 5034,231.378C5036.17,234.169 5037.25,237.836 5037.25,242.378C5037.25,245.711 5036.48,248.628 5034.94,251.128C5033.4,253.628 5031.52,255.648 5029.31,257.19C5027.11,258.732 5024.98,259.711 5022.94,260.128L5024.5,260.128C5028.21,260.378 5031.46,261.294 5034.25,262.878C5037.08,264.419 5039.29,266.503 5040.88,269.128C5042.46,271.753 5043.25,274.773 5043.25,278.19C5043.25,283.773 5042.17,288.315 5040,291.815C5037.83,295.273 5034.75,297.961 5030.75,299.878C5026.75,301.794 5021.98,303.107 5016.44,303.815C5010.94,304.523 5004.88,304.878 4998.25,304.878C4995.13,304.878 4992.13,304.773 4989.25,304.565C4986.38,304.357 4983.94,304.044 4981.94,303.628ZM5002.5,286.315C5002.88,286.357 5003.33,286.378 5003.88,286.378L5005.69,286.378C5007.94,286.378 5010.19,286.232 5012.44,285.94C5014.69,285.648 5016.73,285.169 5018.56,284.503C5020.44,283.836 5021.94,282.919 5023.06,281.753C5024.19,280.544 5024.75,279.044 5024.75,277.253C5024.75,276.003 5024.48,274.898 5023.94,273.94C5023.44,272.982 5022.65,272.19 5021.56,271.565C5020.48,270.898 5019.06,270.419 5017.31,270.128C5015.61,269.794 5013.54,269.628 5011.13,269.628C5010.42,269.628 5009.54,269.648 5008.5,269.69C5007.46,269.69 5006.38,269.732 5005.25,269.815C5004.17,269.857 5003.15,269.94 5002.19,270.065L5002.5,286.315ZM5001.94,254.253C5004.15,254.253 5005.92,254.19 5007.25,254.065C5008.58,253.94 5009.75,253.711 5010.75,253.378C5013.17,253.003 5015.38,252.128 5017.38,250.753C5019.42,249.336 5020.44,247.44 5020.44,245.065C5020.44,242.607 5019.58,240.773 5017.88,239.565C5016.17,238.315 5013.98,237.69 5011.31,237.69C5009.77,237.69 5008.08,237.794 5006.25,238.003C5004.46,238.169 5002.9,238.357 5001.56,238.565L5001.94,254.253Z" style="fill:white;fill-rule:nonzero;"/>
                </g>
                <g transform="matrix(1,0,0,1,-17.6787,0)">
                    <path d="M5071.13,249.065C5072.08,247.19 5073.54,245.398 5075.5,243.69C5077.5,241.982 5079.86,240.586 5082.56,239.503C5085.31,238.419 5088.23,237.878 5091.31,237.878C5093.19,237.878 5095.08,238.065 5097,238.44C5098.92,238.815 5100.31,239.315 5101.19,239.94L5097.31,259.815C5096.4,259.44 5095.21,259.023 5093.75,258.565C5092.29,258.107 5090.63,257.878 5088.75,257.878C5086.83,257.878 5084.96,258.211 5083.13,258.878C5081.33,259.503 5079.67,260.398 5078.13,261.565C5076.58,262.732 5075.23,264.128 5074.06,265.753C5074.48,268.169 5074.94,271.253 5075.44,275.003C5075.98,278.753 5076.48,282.607 5076.94,286.565C5077.4,290.523 5077.77,294.128 5078.06,297.378C5078.36,300.628 5078.5,303.003 5078.5,304.503C5075.58,304.878 5072.21,305.128 5068.38,305.253C5064.54,305.378 5060.86,305.419 5057.31,305.378C5057.31,301.878 5057.21,297.898 5057,293.44C5056.83,288.982 5056.58,284.336 5056.25,279.503C5055.92,274.628 5055.5,269.836 5055,265.128C5054.54,260.378 5054,255.982 5053.38,251.94C5052.79,247.898 5052.17,244.461 5051.5,241.628C5053.5,241.044 5055.71,240.503 5058.13,240.003C5060.54,239.503 5062.73,239.107 5064.69,238.815C5066.65,238.482 5067.9,238.294 5068.44,238.253C5068.94,239.419 5069.5,241.148 5070.13,243.44C5070.75,245.69 5071.08,247.565 5071.13,249.065Z" style="fill:white;fill-rule:nonzero;"/>
                </g>
                <g transform="matrix(1,0,0,1,-17.6787,0)">
                    <path d="M5130.44,304.94C5129.73,304.982 5128.38,305.065 5126.38,305.19C5124.42,305.357 5122.33,305.44 5120.13,305.44C5118.5,305.44 5116.86,305.378 5115.19,305.253C5113.56,305.169 5111.96,305.044 5110.38,304.878C5110.58,303.794 5110.81,301.586 5111.06,298.253C5111.36,294.878 5111.63,290.919 5111.88,286.378C5112.17,281.836 5112.44,277.148 5112.69,272.315C5112.98,267.44 5113.19,262.878 5113.31,258.628C5113.48,254.378 5113.56,250.961 5113.56,248.378C5114.4,248.336 5115.63,248.273 5117.25,248.19C5118.88,248.107 5120.63,248.044 5122.5,248.003C5124.38,247.919 5126.17,247.857 5127.88,247.815C5129.58,247.732 5130.94,247.69 5131.94,247.69C5132.15,248.982 5132.31,251.065 5132.44,253.94C5132.56,256.815 5132.63,260.023 5132.63,263.565C5132.63,267.357 5132.56,271.378 5132.44,275.628C5132.36,279.878 5132.21,284.003 5132,288.003C5131.83,291.961 5131.61,295.461 5131.31,298.503C5131.02,301.503 5130.73,303.648 5130.44,304.94ZM5123.44,239.628C5119.69,239.628 5116.54,238.544 5114,236.378C5111.46,234.169 5110.19,231.273 5110.19,227.69C5110.19,225.232 5110.79,223.128 5112,221.378C5113.21,219.628 5114.77,218.294 5116.69,217.378C5118.65,216.419 5120.71,215.94 5122.88,215.94C5126.33,215.94 5129.19,217.065 5131.44,219.315C5133.73,221.565 5134.88,224.461 5134.88,228.003C5134.88,231.294 5133.79,234.065 5131.63,236.315C5129.46,238.523 5126.73,239.628 5123.44,239.628Z" style="fill:white;fill-rule:nonzero;"/>
                </g>
                <g transform="matrix(1,0,0,1,-17.6787,0)">
                    <path d="M5168.69,305.878C5167.44,305.919 5165.9,305.919 5164.06,305.878C5162.23,305.878 5160.36,305.857 5158.44,305.815C5156.9,305.773 5155.13,305.711 5153.13,305.628C5151.13,305.544 5149.73,305.461 5148.94,305.378C5149.31,301.878 5149.63,297.919 5149.88,293.503C5150.17,289.086 5150.4,284.19 5150.56,278.815C5150.73,273.44 5150.86,267.565 5150.94,261.19C5151.02,254.815 5151.06,247.919 5151.06,240.503C5152.65,240.294 5154.52,240.128 5156.69,240.003C5158.86,239.878 5161.04,239.815 5163.25,239.815C5164.79,239.815 5166.27,239.857 5167.69,239.94C5169.15,239.982 5170.44,240.107 5171.56,240.315L5171.56,242.628C5171.61,243.753 5171.61,245.003 5171.56,246.378C5171.56,247.711 5171.54,248.919 5171.5,250.003C5172.58,248.419 5174.36,246.773 5176.81,245.065C5179.27,243.315 5182.13,241.836 5185.38,240.628C5188.63,239.419 5191.98,238.815 5195.44,238.815C5201.81,238.815 5206.69,240.107 5210.06,242.69C5213.44,245.232 5215.75,249.065 5217,254.19C5218.25,259.273 5218.88,265.648 5218.88,273.315C5218.88,275.982 5218.79,279.107 5218.63,282.69C5218.5,286.232 5218.29,289.961 5218,293.878C5217.71,297.794 5217.33,301.586 5216.88,305.253C5216.04,305.336 5214.71,305.398 5212.88,305.44C5211.08,305.523 5209.19,305.565 5207.19,305.565C5205.06,305.565 5203.04,305.523 5201.13,305.44C5199.21,305.398 5197.79,305.336 5196.88,305.253C5197.33,302.919 5197.83,300.003 5198.38,296.503C5198.92,293.003 5199.38,289.273 5199.75,285.315C5200.13,281.315 5200.31,277.503 5200.31,273.878C5200.31,270.378 5200.02,267.336 5199.44,264.753C5198.9,262.169 5197.83,260.169 5196.25,258.753C5194.71,257.294 5192.42,256.565 5189.38,256.565C5186.88,256.565 5184.48,257.003 5182.19,257.878C5179.9,258.753 5177.81,259.836 5175.94,261.128C5174.06,262.378 5172.46,263.607 5171.13,264.815C5171.08,271.398 5170.92,277.357 5170.63,282.69C5170.33,287.982 5170.02,292.586 5169.69,296.503C5169.36,300.378 5169.02,303.503 5168.69,305.878Z" style="fill:white;fill-rule:nonzero;"/>
                </g>
                <g transform="matrix(1,0,0,1,-17.6787,0)">
                    <path d="M5293.5,293.878C5292.33,295.294 5290.88,296.69 5289.13,298.065C5287.38,299.44 5285.27,300.69 5282.81,301.815C5280.4,302.898 5277.63,303.773 5274.5,304.44C5271.38,305.065 5267.88,305.378 5264,305.378C5257.71,305.378 5252.13,304.19 5247.25,301.815C5242.38,299.398 5238.56,295.836 5235.81,291.128C5233.11,286.378 5231.75,280.482 5231.75,273.44C5231.75,266.398 5233.17,260.273 5236,255.065C5238.83,249.815 5242.79,245.753 5247.88,242.878C5252.96,239.961 5258.9,238.503 5265.69,238.503C5274.27,238.503 5281.02,240.898 5285.94,245.69C5290.9,250.44 5293.48,257.023 5293.69,265.44C5293.73,266.982 5293.71,268.378 5293.63,269.628C5293.54,270.878 5293.38,272.211 5293.13,273.628C5292.5,273.586 5291.17,273.544 5289.13,273.503C5287.08,273.461 5284.77,273.419 5282.19,273.378C5279.65,273.294 5277.23,273.232 5274.94,273.19C5272.69,273.148 5271.02,273.128 5269.94,273.128C5266.31,273.128 5262.79,273.294 5259.38,273.628C5256,273.961 5253.17,274.315 5250.88,274.69C5250.88,275.44 5250.92,276.19 5251,276.94C5251.13,277.648 5251.29,278.336 5251.5,279.003C5252.04,280.711 5252.98,282.169 5254.31,283.378C5255.69,284.586 5257.31,285.523 5259.19,286.19C5261.11,286.815 5263.13,287.128 5265.25,287.128C5267.17,287.128 5268.92,286.898 5270.5,286.44C5272.13,285.94 5273.61,285.294 5274.94,284.503C5276.27,283.711 5277.48,282.857 5278.56,281.94C5279.69,280.982 5280.73,280.044 5281.69,279.128C5281.94,279.336 5282.58,279.961 5283.63,281.003C5284.67,282.003 5285.83,283.253 5287.13,284.753C5288.42,286.211 5289.65,287.753 5290.81,289.378C5291.98,291.003 5292.88,292.503 5293.5,293.878ZM5251.56,263.003C5253.44,262.711 5255.75,262.44 5258.5,262.19C5261.25,261.94 5264.44,261.815 5268.06,261.815C5270.02,261.815 5271.75,261.836 5273.25,261.878C5274.79,261.919 5275.88,261.961 5276.5,262.003C5276.5,261.128 5276.38,260.169 5276.13,259.128C5275.79,257.711 5275.13,256.357 5274.13,255.065C5273.17,253.773 5271.92,252.732 5270.38,251.94C5268.88,251.148 5267.06,250.753 5264.94,250.753C5262.27,250.753 5259.94,251.336 5257.94,252.503C5255.98,253.669 5254.46,255.19 5253.38,257.065C5252.29,258.94 5251.69,260.919 5251.56,263.003Z" style="fill:white;fill-rule:nonzero;"/>
                </g>
                <g transform="matrix(1,0,0,1,-9.95884,-6.36434)">
                    <path d="M4804.44,407.465C4797.9,407.465 4792.32,406.082 4787.69,403.315C4783.09,400.548 4779.57,396.582 4777.14,391.415C4774.7,386.215 4773.49,379.998 4773.49,372.765C4773.49,365.998 4774.59,360.015 4776.79,354.815C4779.02,349.615 4782.27,345.548 4786.54,342.615C4790.81,339.648 4796.01,338.165 4802.14,338.165C4805.47,338.165 4808.67,338.632 4811.74,339.565C4814.84,340.465 4817.64,341.748 4820.14,343.415C4822.64,345.082 4824.65,347.065 4826.19,349.365C4825.62,350.098 4824.62,351.115 4823.19,352.415C4821.79,353.715 4820.24,355.048 4818.54,356.415C4816.84,357.782 4815.22,358.932 4813.69,359.865C4812.92,358.732 4812.01,357.682 4810.94,356.715C4809.9,355.748 4808.67,354.982 4807.24,354.415C4805.81,353.848 4804.12,353.565 4802.19,353.565C4800.32,353.565 4798.61,354.082 4797.04,355.115C4795.47,356.115 4794.12,357.515 4792.99,359.315C4791.86,361.115 4790.97,363.248 4790.34,365.715C4789.74,368.148 4789.44,370.798 4789.44,373.665C4789.44,377.498 4789.99,380.915 4791.09,383.915C4792.19,386.882 4793.86,389.215 4796.09,390.915C4798.32,392.582 4801.15,393.415 4804.59,393.415C4806.72,393.415 4808.52,392.998 4809.99,392.165C4811.49,391.298 4812.62,390.165 4813.39,388.765C4814.19,387.332 4814.59,385.798 4814.59,384.165C4814.59,383.698 4814.57,383.282 4814.54,382.915C4814.54,382.548 4814.51,382.198 4814.44,381.865C4813.87,381.698 4812.99,381.532 4811.79,381.365C4810.59,381.165 4809.26,380.982 4807.79,380.815C4806.36,380.615 4804.97,380.465 4803.64,380.365C4802.31,380.232 4801.2,380.148 4800.34,380.115C4800.34,379.182 4800.36,377.998 4800.39,376.565C4800.42,375.098 4800.47,373.648 4800.54,372.215C4800.64,370.748 4800.74,369.565 4800.84,368.665C4803.2,368.698 4806.09,368.898 4809.49,369.265C4812.89,369.598 4816.31,370.032 4819.74,370.565C4823.2,371.098 4826.17,371.682 4828.64,372.315C4828.97,373.548 4829.2,374.948 4829.34,376.515C4829.47,378.048 4829.54,379.448 4829.54,380.715C4829.54,385.548 4828.62,389.998 4826.79,394.065C4824.99,398.098 4822.22,401.348 4818.49,403.815C4814.79,406.248 4810.11,407.465 4804.44,407.465Z" style="fill:white;fill-rule:nonzero;"/>
                </g>
                <g transform="matrix(1,0,0,1,-9.95884,-6.36434)">
                    <path d="M4859.34,405.915C4855.24,405.915 4851.49,405.365 4848.09,404.265C4844.69,403.132 4841.97,401.315 4839.94,398.815C4837.94,396.282 4836.94,392.932 4836.94,388.765C4836.94,384.598 4838.11,381.248 4840.44,378.715C4842.81,376.148 4845.9,374.298 4849.74,373.165C4853.61,371.998 4857.76,371.415 4862.19,371.415C4863.92,371.415 4865.59,371.548 4867.19,371.815C4868.79,372.082 4870.19,372.398 4871.39,372.765C4872.62,373.132 4873.51,373.482 4874.04,373.815C4874.01,372.948 4873.82,372.032 4873.49,371.065C4873.19,370.098 4872.76,369.282 4872.19,368.615C4871.19,367.248 4869.82,366.115 4868.09,365.215C4866.39,364.282 4864.14,363.815 4861.34,363.815C4858.51,363.815 4856.01,364.465 4853.84,365.765C4851.67,367.032 4850.02,368.465 4848.89,370.065L4836.69,362.215C4838.19,360.082 4840.2,358.215 4842.74,356.615C4845.31,355.015 4848.2,353.765 4851.44,352.865C4854.7,351.965 4858.12,351.515 4861.69,351.515C4867.59,351.515 4872.37,352.482 4876.04,354.415C4879.7,356.348 4882.42,359.048 4884.19,362.515C4885.02,364.182 4885.7,366.015 4886.24,368.015C4886.77,370.015 4887.14,372.315 4887.34,374.915C4887.47,377.148 4887.57,379.232 4887.64,381.165C4887.7,383.098 4887.77,384.932 4887.84,386.665C4887.9,389.198 4888.19,390.848 4888.69,391.615C4889.19,392.382 4889.9,392.765 4890.84,392.765C4891.7,392.765 4892.47,392.532 4893.14,392.065C4893.84,391.565 4894.29,390.915 4894.49,390.115L4899.69,400.065C4899.32,401.598 4898.29,402.882 4896.59,403.915C4894.89,404.948 4892.74,405.465 4890.14,405.465C4888.24,405.465 4886.44,405.148 4884.74,404.515C4883.04,403.848 4881.64,402.965 4880.54,401.865C4879.44,400.732 4878.79,399.448 4878.59,398.015C4878.06,399.282 4876.94,400.532 4875.24,401.765C4873.54,402.965 4871.36,403.965 4868.69,404.765C4866.02,405.532 4862.9,405.915 4859.34,405.915ZM4862.69,394.165C4864.26,394.165 4865.86,393.932 4867.49,393.465C4869.15,392.965 4870.65,392.348 4871.99,391.615C4873.36,390.882 4874.4,390.132 4875.14,389.365C4875.07,388.332 4875.01,387.265 4874.94,386.165C4874.9,385.065 4874.9,384.132 4874.94,383.365C4874.2,383.065 4872.81,382.748 4870.74,382.415C4868.7,382.048 4866.57,381.865 4864.34,381.865C4862.31,381.865 4860.4,382.082 4858.64,382.515C4856.87,382.948 4855.42,383.615 4854.29,384.515C4853.19,385.415 4852.64,386.582 4852.64,388.015C4852.64,389.548 4853.06,390.765 4853.89,391.665C4854.72,392.565 4855.89,393.215 4857.39,393.615C4858.89,393.982 4860.65,394.165 4862.69,394.165Z" style="fill:white;fill-rule:nonzero;"/>
                </g>
                <g transform="matrix(1,0,0,1,-9.95884,-6.36434)">
                    <path d="M4905.29,405.465C4905.12,403.298 4904.95,400.532 4904.79,397.165C4904.65,393.798 4904.52,390.148 4904.39,386.215C4904.29,382.248 4904.19,378.315 4904.09,374.415C4904.02,370.515 4903.97,366.915 4903.94,363.615C4903.9,360.282 4903.89,357.598 4903.89,355.565C4904.69,355.365 4905.76,355.165 4907.09,354.965C4908.42,354.732 4909.84,354.532 4911.34,354.365C4912.84,354.165 4914.26,354.015 4915.59,353.915C4916.95,353.782 4918.06,353.715 4918.89,353.715C4918.92,354.248 4918.95,354.932 4918.99,355.765C4919.02,356.565 4919.04,357.398 4919.04,358.265C4919.07,359.132 4919.09,359.915 4919.09,360.615L4919.09,362.215C4919.29,361.582 4919.76,360.765 4920.49,359.765C4921.22,358.765 4922.22,357.765 4923.49,356.765C4924.79,355.765 4926.36,354.932 4928.19,354.265C4930.02,353.565 4932.14,353.215 4934.54,353.215C4936.84,353.215 4938.79,353.648 4940.39,354.515C4941.99,355.382 4943.32,356.515 4944.39,357.915C4945.45,359.315 4946.29,360.832 4946.89,362.465C4947.19,363.265 4947.42,364.082 4947.59,364.915C4947.79,365.748 4947.94,366.565 4948.04,367.365C4948.77,364.932 4949.99,362.615 4951.69,360.415C4953.42,358.182 4955.57,356.365 4958.14,354.965C4960.7,353.532 4963.65,352.815 4966.99,352.815C4970.99,352.815 4974.27,353.532 4976.84,354.965C4979.44,356.398 4981.45,358.515 4982.89,361.315C4984.32,364.115 4985.32,367.548 4985.89,371.615C4986.45,375.682 4986.74,380.332 4986.74,385.565C4986.74,387.632 4986.69,389.798 4986.59,392.065C4986.52,394.332 4986.42,396.615 4986.29,398.915C4986.15,401.215 4986.02,403.448 4985.89,405.615C4984.69,405.682 4983.44,405.732 4982.14,405.765C4980.84,405.832 4979.54,405.865 4978.24,405.865C4976.94,405.865 4975.61,405.832 4974.24,405.765C4972.9,405.732 4971.56,405.665 4970.19,405.565C4970.86,400.598 4971.4,396.032 4971.84,391.865C4972.27,387.665 4972.49,383.982 4972.49,380.815C4972.49,376.182 4971.95,372.648 4970.89,370.215C4969.86,367.782 4968.07,366.565 4965.54,366.565C4963.24,366.565 4961.37,367.265 4959.94,368.665C4958.51,370.065 4957.39,371.998 4956.59,374.465C4955.79,376.932 4955.2,379.798 4954.84,383.065C4954.51,386.298 4954.27,389.765 4954.14,393.465C4954.07,395.332 4954.01,397.282 4953.94,399.315C4953.87,401.348 4953.84,403.415 4953.84,405.515C4953.17,405.548 4952.22,405.582 4950.99,405.615C4949.79,405.682 4948.52,405.715 4947.19,405.715C4945.62,405.715 4944.11,405.682 4942.64,405.615C4941.2,405.582 4940.15,405.515 4939.49,405.415C4939.45,403.148 4939.44,401.015 4939.44,399.015L4939.44,392.865C4939.44,389.065 4939.34,385.565 4939.14,382.365C4938.97,379.132 4938.61,376.332 4938.04,373.965C4937.47,371.565 4936.62,369.698 4935.49,368.365C4934.39,367.032 4932.89,366.365 4930.99,366.365C4929.69,366.365 4928.42,366.648 4927.19,367.215C4925.95,367.782 4924.82,368.515 4923.79,369.415C4922.79,370.315 4921.94,371.315 4921.24,372.415C4920.57,373.482 4920.11,374.548 4919.84,375.615C4920.04,380.915 4920.26,385.748 4920.49,390.115C4920.72,394.482 4920.94,398.048 4921.14,400.815C4921.34,403.548 4921.47,405.198 4921.54,405.765C4921.17,405.798 4920.4,405.832 4919.24,405.865C4918.07,405.898 4917.06,405.915 4916.19,405.915C4914.09,405.915 4911.99,405.865 4909.89,405.765C4907.79,405.665 4906.26,405.565 4905.29,405.465Z" style="fill:white;fill-rule:nonzero;"/>
                </g>
                <g transform="matrix(1,0,0,1,-9.95884,-6.36434)">
                    <path d="M5045.19,396.115C5044.26,397.248 5043.09,398.365 5041.69,399.465C5040.29,400.565 5038.61,401.565 5036.64,402.465C5034.7,403.332 5032.49,404.032 5029.99,404.565C5027.49,405.065 5024.69,405.315 5021.59,405.315C5016.56,405.315 5012.09,404.365 5008.19,402.465C5004.29,400.532 5001.24,397.682 4999.04,393.915C4996.87,390.115 4995.79,385.398 4995.79,379.765C4995.79,374.132 4996.92,369.232 4999.19,365.065C5001.45,360.865 5004.62,357.615 5008.69,355.315C5012.76,352.982 5017.51,351.815 5022.94,351.815C5029.81,351.815 5035.2,353.732 5039.14,357.565C5043.11,361.365 5045.17,366.632 5045.34,373.365C5045.37,374.598 5045.36,375.715 5045.29,376.715C5045.22,377.715 5045.09,378.782 5044.89,379.915C5044.39,379.882 5043.32,379.848 5041.69,379.815C5040.06,379.782 5038.2,379.748 5036.14,379.715C5034.11,379.648 5032.17,379.598 5030.34,379.565C5028.54,379.532 5027.2,379.515 5026.34,379.515C5023.44,379.515 5020.62,379.648 5017.89,379.915C5015.19,380.182 5012.92,380.465 5011.09,380.765C5011.09,381.365 5011.12,381.965 5011.19,382.565C5011.29,383.132 5011.42,383.682 5011.59,384.215C5012.02,385.582 5012.77,386.748 5013.84,387.715C5014.94,388.682 5016.24,389.432 5017.74,389.965C5019.27,390.465 5020.89,390.715 5022.59,390.715C5024.12,390.715 5025.52,390.532 5026.79,390.165C5028.09,389.765 5029.27,389.248 5030.34,388.615C5031.4,387.982 5032.37,387.298 5033.24,386.565C5034.14,385.798 5034.97,385.048 5035.74,384.315C5035.94,384.482 5036.45,384.982 5037.29,385.815C5038.12,386.615 5039.06,387.615 5040.09,388.815C5041.12,389.982 5042.11,391.215 5043.04,392.515C5043.97,393.815 5044.69,395.015 5045.19,396.115ZM5011.64,371.415C5013.14,371.182 5014.99,370.965 5017.19,370.765C5019.39,370.565 5021.94,370.465 5024.84,370.465C5026.4,370.465 5027.79,370.482 5028.99,370.515C5030.22,370.548 5031.09,370.582 5031.59,370.615C5031.59,369.915 5031.49,369.148 5031.29,368.315C5031.02,367.182 5030.49,366.098 5029.69,365.065C5028.92,364.032 5027.92,363.198 5026.69,362.565C5025.49,361.932 5024.04,361.615 5022.34,361.615C5020.2,361.615 5018.34,362.082 5016.74,363.015C5015.17,363.948 5013.95,365.165 5013.09,366.665C5012.22,368.165 5011.74,369.748 5011.64,371.415Z" style="fill:white;fill-rule:nonzero;"/>
                </g>
                <g transform="matrix(1,0,0,1,-9.95884,-6.36434)">
                    <path d="M5075.94,409.015C5072.04,409.015 5068.45,408.532 5065.19,407.565C5061.95,406.632 5059.2,405.532 5056.94,404.265C5054.7,402.965 5053.09,401.798 5052.09,400.765C5052.29,400.132 5052.67,399.215 5053.24,398.015C5053.84,396.782 5054.54,395.448 5055.34,394.015C5056.14,392.582 5056.94,391.248 5057.74,390.015C5058.54,388.782 5059.26,387.865 5059.89,387.265C5061.49,388.632 5063.22,389.982 5065.09,391.315C5066.95,392.615 5068.87,393.682 5070.84,394.515C5072.81,395.348 5074.64,395.765 5076.34,395.765C5077.67,395.765 5078.87,395.598 5079.94,395.265C5081.01,394.898 5081.84,394.365 5082.44,393.665C5083.07,392.965 5083.39,392.098 5083.39,391.065C5083.39,389.865 5082.81,388.715 5081.64,387.615C5080.51,386.482 5079.04,385.415 5077.24,384.415C5075.44,383.415 5073.56,382.515 5071.59,381.715C5068.89,380.615 5066.37,379.332 5064.04,377.865C5061.7,376.365 5059.82,374.532 5058.39,372.365C5056.95,370.165 5056.24,367.432 5056.24,364.165C5056.24,360.832 5057.22,358.032 5059.19,355.765C5061.15,353.498 5063.72,351.782 5066.89,350.615C5070.09,349.448 5073.51,348.865 5077.14,348.865C5080.57,348.865 5084.06,349.348 5087.59,350.315C5091.12,351.248 5094.01,352.598 5096.24,354.365C5096.04,354.998 5095.61,355.965 5094.94,357.265C5094.31,358.565 5093.52,359.965 5092.59,361.465C5091.69,362.932 5090.72,364.282 5089.69,365.515C5088.32,364.348 5086.61,363.232 5084.54,362.165C5082.47,361.098 5080.31,360.565 5078.04,360.565C5076.9,360.565 5075.77,360.682 5074.64,360.915C5073.54,361.148 5072.62,361.565 5071.89,362.165C5071.19,362.765 5070.84,363.582 5070.84,364.615C5070.84,365.615 5071.22,366.515 5071.99,367.315C5072.76,368.082 5073.87,368.832 5075.34,369.565C5076.84,370.298 5078.59,371.065 5080.59,371.865C5082.59,372.665 5084.62,373.615 5086.69,374.715C5088.76,375.782 5090.65,377.065 5092.39,378.565C5094.15,380.065 5095.57,381.815 5096.64,383.815C5097.7,385.782 5098.24,388.048 5098.24,390.615C5098.24,394.715 5097.22,398.132 5095.19,400.865C5093.15,403.598 5090.44,405.632 5087.04,406.965C5083.67,408.332 5079.97,409.015 5075.94,409.015Z" style="fill:white;fill-rule:nonzero;"/>
                </g>
            </g>
            <g transform="matrix(1,0,0,1,2574.19,-5.68434e-14)">
                <g transform="matrix(0.88712,0,0,0.939545,1433.95,5.24329)">
                    <path d="M13227.9,356.262C13238.4,407.461 13235.3,574.282 13234.5,630.916C13234.2,651.494 13212.8,667.622 13189.2,672.947C13128.4,686.657 12957.9,685.697 12898.6,681.387C12841.4,677.233 12838.9,671.375 12834.9,630.434C12829.9,578.256 12843.5,421.872 12850.6,370.095C12856.3,329.139 12873.1,326.161 12894.6,321.912C12952.4,310.529 13125.1,314.724 13181.7,322.032C13204.3,324.948 13222,327.571 13227.9,356.262Z" style="fill:rgb(0,166,208);"/>
                </g>
                <g transform="matrix(1,0,0,1,0.167208,0)">
                    <path d="M12820.2,521.587C12801.1,503.967 12783.4,478.856 12780,452.289C12776.8,426.583 12787.7,402.114 12806.8,398.271C12813.5,396.917 12821.6,397.361 12828.7,400.601C12833.1,402.615 12837.1,405.707 12840,410.119C12845.7,418.613 12848.6,433.578 12837,446.982C12832.4,452.408 12838.9,455.869 12842.5,458.278C12847.8,461.695 12863.5,460.859 12865.3,454.392C12865.7,452.788 12866.2,451.205 12866.7,449.644C12873,428.437 12881.7,411.346 12889,401.387C12890.8,398.981 12892.5,396.992 12894.1,395.461C12897.4,392.28 12887.8,393.215 12879.4,384.961C12869.8,375.623 12872.4,362.876 12887.2,355.997C12902.1,349.118 12922.4,364.782 12928.9,360.704C12935.8,356.359 12957.5,339.342 13005.3,339.985C13030,340.318 13057.2,348.76 13076.2,362.735C13093.8,375.705 13104,394.293 13106.3,394.293C13122.6,394.293 13143.9,396.104 13152.3,402.621C13160.6,409.137 13173.4,427.57 13157.7,443.533C13141.6,459.838 13122.2,448.964 13119.7,452.222C13115.4,457.771 13117.2,493.047 13122.6,498.629C13128,504.21 13148.2,501.341 13153.4,498.629C13156.6,496.934 13154,491.695 13153,483.005C13151.5,471.338 13161.5,459.685 13175.1,455.562C13185.8,452.32 13198.6,453.734 13209.7,463.454C13234.9,485.54 13220.7,538.396 13177.9,561.934C13176.9,562.507 13175.9,563.051 13174.9,563.568C13144.5,579.022 13126.7,569.512 13132.3,575.33C13143.5,586.967 13154.6,591.084 13174.4,596.292C13174.4,596.878 13174.4,597.454 13174.4,598.017C13174.3,601.874 13173.5,605.565 13172.1,609.041C13166.5,622.993 13151,633.502 13134.2,637.507C13132.6,637.9 13130.8,638.28 13129,638.648C13123.8,639.698 13117.9,640.646 13111.4,641.499C13083.1,629.827 13066.3,612.151 13071.1,619.085C13077.7,628.535 13088.5,636.534 13097.4,643.119C13093.9,643.473 13090.3,643.805 13086.6,644.116C13072.7,645.286 13057.4,646.165 13041.5,646.796C13035.1,647.052 13028.5,647.267 13022,647.445C13013.1,640.486 13002.5,630.582 12997.7,622.831C12995.9,619.767 12994.3,617.309 12992.9,616.966C12989.9,616.178 12982.7,634.824 12989.8,648.02C12986.8,648.048 12983.8,648.069 12980.8,648.084C12978.9,648.093 12977,648.1 12975.1,648.104C12967,648.121 12958.9,648.089 12951.1,648.013C12944.2,647.946 12937.5,647.844 12931,647.712C12920.6,637.721 12912.7,616.966 12910,616.966C12907.1,616.966 12894.8,632.534 12890.1,640.357C12889,642.196 12887,644.117 12884.4,645.987C12881.6,645.812 12878.9,645.628 12876.4,645.437C12874.7,645.305 12873,645.17 12871.4,645.033C12870.2,644.933 12869.1,644.832 12867.9,644.728L12867.9,644.726C12856.3,643.65 12847.8,642.349 12841.3,640.296C12841.3,640.292 12841.3,640.288 12841.2,640.284C12840.6,640.073 12840,639.853 12839.4,639.625C12838.6,639.344 12837.9,639.049 12837.2,638.74C12832.9,636.831 12829.8,634.384 12827.5,631.142C12835.6,618.013 12843.3,601.913 12856.1,552.66C12856.4,551.301 12856.1,545.514 12849.7,542.456C12840.8,538.232 12830.3,530.972 12820.2,521.587Z" style="fill:rgb(160,57,5);"/>
                </g>
                <g transform="matrix(1,0,0,1,0.167208,0)">
                    <path d="M13172.1,609.041C13166.5,622.993 13151,633.502 13134.2,637.507C13132.6,637.9 13130.8,638.28 13129,638.648C13095.6,630.627 13068.3,610.224 13065.1,607.951C13064.2,607.278 13063.5,606.772 13062.9,606.728C13062.3,606.684 13061.8,607.109 13061.8,607.602C13062.6,626.291 13079.2,637.742 13086.6,644.116C13072.7,645.286 13057.4,646.165 13041.5,646.796C13041.4,646.757 13041.3,646.718 13041.1,646.678C13023.3,641.22 13000.1,616.682 12995.8,609.4C12994.9,607.884 12992.9,604.701 12990.5,607.602C12975.4,626.129 12977.6,642.809 12980.8,648.084C12978.9,648.093 12977,648.1 12975.1,648.104C12967,648.121 12958.9,648.089 12951.1,648.013C12950.6,647.83 12950.1,647.63 12949.6,647.41C12937.6,642.219 12919.9,619.053 12914.4,608.135C12913.2,605.726 12913,603.329 12910,605.127C12903.7,608.867 12892.4,622.446 12880.8,637.507C12878.5,640.529 12875.1,643.061 12871.4,645.033C12870.2,644.934 12869.1,644.833 12867.9,644.728C12867.9,644.727 12867.9,644.726 12867.9,644.726C12856.3,643.65 12847.8,642.349 12841.3,640.296C12841.3,640.292 12841.3,640.288 12841.2,640.284C12840.6,640.073 12840,639.853 12839.4,639.625C12838.6,639.344 12837.9,639.049 12837.2,638.74C12837.7,638.019 12838.3,637.164 12838.8,636.216C12844.8,625.39 12857.8,580.386 12861.6,554.988C12863.2,544.173 12860.4,542.731 12859.9,541.482C12858.8,538.722 12840.2,531.872 12820.7,510.494C12815.7,504.947 12810.6,498.421 12805.7,490.736C12782.1,453.43 12791,416.971 12809.2,411.96C12816.9,409.866 12823,410.582 12827.6,412.653C12834.1,415.537 12837.6,421.048 12838.2,425.247C12839.1,432.46 12838.1,440.069 12827.6,441.197C12826.8,441.278 12826,441.315 12825.3,441.313C12815.1,441.293 12803.1,434.899 12803.1,434.899C12803.1,434.899 12801.2,432.845 12801.7,435.519C12803.1,442.24 12815.3,448.423 12821.5,448.992C12822.7,449.097 12823,448.968 12823.6,449.656C12823.8,449.781 12824.1,450.19 12824.5,450.788C12825.1,451.569 12825.8,452.672 12826.5,453.88C12830.1,460.512 12840.6,472.687 12867.4,462.758C12867.9,462.592 12868.3,462.419 12868.8,462.24C12869.6,457.785 12872.4,447.218 12877.2,435.384C12879.6,429.555 12882.4,423.419 12885.7,417.554C12891.8,406.723 12899.5,396.818 12908.9,391.487C12907.8,391.695 12906.7,391.754 12905.6,391.684C12900.5,391.355 12894.7,388.224 12888.9,384.246C12881.1,378.88 12876.7,365.419 12890.4,361.943C12904,358.468 12916.1,365.534 12922.2,366.288C12922.7,366.343 12916,376.786 12918.8,378.033C12920.2,378.651 12923.5,375.981 12925.9,373.582C12927.1,372.441 12938.2,362.83 12954.5,355.991C12984.1,343.544 13030.4,345.844 13059,360.257C13094.5,378.065 13096.7,405.674 13102.7,404.939C13107.5,404.352 13133.5,401.925 13150.3,414.3C13163.6,424.019 13150.6,442.607 13133.8,443.248C13118.6,443.83 13103.4,433.519 13102.2,436.367C13101,439.214 13109.2,444.197 13110.6,445.62C13110.4,448.824 13109.9,495.128 13114.8,503.033C13117.9,508.139 13142.8,513.378 13162.9,504.646C13165,505.118 13164.6,506.762 13175.3,508.824C13175.9,508.948 13176.6,509.075 13177.4,509.202C13187.1,510.911 13194.9,502.084 13196.9,499.142C13198.9,496.199 13200.9,489.271 13200,488.701C13198.1,487.387 13197.7,494.947 13191.6,498.547C13187.2,501.109 13180.5,501.718 13175.3,500.841C13172.9,500.43 13170.7,499.695 13169.3,498.682C13160.6,492.46 13162,476.731 13174.4,469.263C13174.7,469.099 13174.9,468.941 13175.2,468.79C13187.5,462.025 13202,467.224 13206.8,479.57C13215.7,502.376 13203.3,532.503 13175,552.605C13172.6,554.285 13170.1,555.896 13167.5,557.426C13134,577.261 13097.1,561.228 13095.9,563.885C13094.7,566.543 13105.2,572.331 13118.2,574.203C13124.5,586.871 13146.1,604.159 13172.1,609.041Z" style="fill:rgb(255,138,18);"/>
                </g>
                <g transform="matrix(0.967225,0.109013,-0.104841,0.930209,503.711,-1376.07)">
                    <path d="M12886.1,388.663C12913.3,391.651 12925.1,415.333 12925.1,448.903C12925.1,482.474 12905.2,514.638 12875.7,513.875C12849.6,513.201 12829.9,482.29 12831.7,448.773C12833.7,412.637 12860.2,385.809 12886.1,388.663Z"/>
                </g>
                <g transform="matrix(1.13213,0.0312702,-0.025846,0.935742,-1522.9,-366.53)">
                    <path d="M12886.1,388.663C12904.3,390.017 12925.9,416.015 12925.9,449.585C12925.9,483.156 12908.4,515.691 12875.7,513.875C12849.6,512.431 12829.9,482.29 12831.7,448.773C12833.7,412.637 12860.1,386.725 12886.1,388.663Z"/>
                </g>
                <g transform="matrix(0.968674,0.0267556,-0.022642,0.819743,582.99,-255.972)">
                    <path d="M12915.1,491.945C12906.6,505.79 12893.4,514.858 12875.7,513.875C12849.6,512.431 12829.9,482.29 12831.7,448.773C12833.7,412.637 12860.1,386.725 12886.1,388.663C12904.3,390.017 12925.9,416.015 12925.9,449.585C12925.9,450.867 12925.9,452.148 12925.8,453.424C12923.6,431.924 12909.6,415.563 12893.2,416.1C12875.6,416.675 12861.7,436.43 12862.3,460.188C12862.8,483.945 12877.6,502.766 12895.2,502.191C12902.8,501.943 12909.7,498.12 12915.1,491.945Z" style="fill:white;"/>
                </g>
                <g transform="matrix(0.819494,0.0923627,-0.089416,0.793349,2400.64,-1099.73)">
                    <path d="M12913.8,490.781C12905,504.881 12891.8,514.292 12875.7,513.875C12849.6,513.201 12829.9,482.29 12831.7,448.773C12833.7,412.637 12860.2,385.809 12886.1,388.663C12908.1,391.086 12920.1,407.116 12923.8,430.992C12916.9,416.307 12904.1,407.005 12890.6,408.576C12872.3,410.713 12859.5,432.143 12862.2,456.401C12864.8,480.66 12881.9,498.62 12900.2,496.483C12905.2,495.902 12909.8,493.89 12913.8,490.781Z" style="fill:white;"/>
                </g>
            </g>
        </g>
    </g>
</svg>
